<svg id="svg" version="1.1" xmlns="http://www.w3.org/2000/svg" xmlns:xlink="http://www.w3.org/1999/xlink" width="400" height="161.22448979591837" viewBox="0, 0, 400,161.22448979591837"><g id="svgg"><path id="path0" d="M290.870 23.260 C 267.584 40.081,262.678 46.861,261.224 64.235 C 260.216 76.287,260.079 76.514,249.563 83.623 C 238.662 90.992,212.240 118.367,216.029 118.367 C 217.187 118.367,223.468 113.489,229.986 107.527 C 236.504 101.565,245.388 94.535,249.729 91.906 C 259.269 86.128,267.297 70.500,267.327 57.649 C 267.347 49.063,267.552 48.819,286.771 34.562 C 304.059 21.738,314.283 11.512,312.011 9.317 C 311.578 8.899,302.065 15.173,290.870 23.260 M56.090 26.583 C 55.379 27.733,51.708 37.849,47.932 49.061 L 41.067 69.446 51.281 74.622 C 61.038 79.566,97.933 95.918,99.332 95.918 C 99.699 95.918,100.000 84.187,100.000 69.848 L 100.000 43.778 80.585 34.134 C 59.918 23.867,58.112 23.311,56.090 26.583 M123.469 34.258 L 105.102 43.878 104.530 70.055 C 103.985 94.961,104.145 96.173,107.828 95.004 C 112.346 93.571,152.016 75.463,158.500 71.874 L 162.919 69.429 155.496 46.960 C 146.807 20.658,148.303 21.252,123.469 34.258 M344.898 26.551 C 343.214 27.650,336.955 28.411,330.988 28.241 C 322.089 27.988,319.339 28.775,315.682 32.618 C 311.494 37.019,311.471 37.204,315.306 35.670 C 317.551 34.772,323.268 34.220,328.011 34.444 C 336.682 34.853,348.980 30.181,348.980 26.478 C 348.980 24.042,348.734 24.046,344.898 26.551 M36.801 49.490 C 33.075 60.995,29.612 71.524,29.108 72.888 C 28.577 74.320,33.011 77.732,39.605 80.966 C 50.103 86.114,54.011 89.796,48.980 89.796 C 47.857 89.796,46.939 92.570,46.939 95.960 L 46.939 102.124 55.338 97.839 C 65.851 92.475,76.065 93.749,70.637 99.747 C 68.828 101.747,67.347 104.371,67.347 105.580 C 67.347 106.788,61.378 111.269,54.082 115.537 C 29.190 130.098,44.926 131.445,71.429 117.022 C 96.444 103.409,106.471 103.362,131.802 116.741 C 159.427 131.330,176.287 129.931,150.000 115.230 C 142.704 111.150,136.735 106.815,136.735 105.597 C 136.735 104.379,135.254 101.747,133.444 99.747 C 127.838 93.551,139.115 92.170,149.170 97.821 L 157.143 102.302 157.143 96.049 C 157.143 92.610,156.224 89.796,155.102 89.796 C 149.816 89.796,154.094 85.776,163.776 81.647 C 169.668 79.134,174.780 76.817,175.134 76.500 C 177.114 74.724,160.663 28.571,158.050 28.571 C 154.345 28.571,153.922 26.305,162.245 51.020 C 166.173 62.686,169.388 72.497,169.388 72.823 C 169.388 73.148,166.403 74.717,162.755 76.309 C 159.107 77.901,144.711 84.342,130.765 90.622 C 116.818 96.903,103.870 102.041,101.992 102.041 C 98.907 102.041,38.110 75.525,35.724 73.139 C 35.174 72.589,37.932 62.615,41.852 50.975 C 50.124 26.411,49.697 28.571,46.278 28.571 C 44.654 28.571,40.877 36.909,36.801 49.490 M232.962 35.678 C 228.635 39.587,222.893 47.164,220.201 52.515 C 217.509 57.866,214.230 62.939,212.914 63.788 C 205.387 68.643,202.041 79.045,202.170 97.180 C 202.318 117.905,204.789 115.265,206.875 92.152 C 208.608 72.955,210.235 70.193,221.730 66.946 C 234.126 63.445,237.526 58.350,230.853 53.274 L 225.992 49.576 231.612 45.707 C 239.949 39.965,246.939 33.124,246.939 30.705 C 246.939 26.480,240.677 28.708,232.962 35.678 M362.194 36.818 C 361.472 37.986,359.177 38.401,357.095 37.740 C 351.246 35.883,347.402 44.291,352.390 48.032 C 355.591 50.433,356.472 50.373,358.575 47.609 C 359.925 45.836,362.383 44.906,364.038 45.541 C 367.850 47.004,372.266 41.860,370.701 37.781 C 369.345 34.249,364.145 33.660,362.194 36.818 M330.603 45.918 C 326.893 54.096,325.148 91.813,328.638 88.430 C 331.190 85.956,335.457 51.498,334.134 44.039 C 333.469 40.287,333.060 40.504,330.603 45.918 M359.675 59.156 C 355.018 66.613,356.474 71.105,363.776 71.809 C 370.406 72.449,370.404 72.451,359.184 77.988 C 346.445 84.275,311.288 118.150,320.408 115.350 C 323.214 114.489,331.039 108.513,337.796 102.071 C 344.554 95.628,353.906 88.407,358.580 86.022 C 368.277 81.075,373.469 74.713,373.469 67.779 C 373.469 56.416,364.778 50.984,359.675 59.156 M287.867 61.016 C 286.045 64.420,286.420 65.540,290.030 67.472 C 294.846 70.050,298.434 67.029,297.423 61.248 C 296.604 56.562,290.332 56.410,287.867 61.016 M311.632 68.776 C 309.724 72.368,308.163 79.087,308.163 83.706 C 308.163 94.329,305.873 98.560,297.234 103.899 C 277.768 115.930,263.252 102.309,272.345 80.547 C 273.971 76.654,274.496 73.469,273.512 73.469 C 264.857 73.469,261.395 106.607,269.231 114.443 C 285.123 130.335,308.245 113.929,314.332 82.441 C 317.554 65.776,316.380 59.837,311.632 68.776 M228.571 75.731 C 228.571 77.068,226.665 77.515,223.915 76.825 C 217.157 75.129,212.391 82.828,217.723 86.828 C 220.890 89.203,221.785 89.139,223.882 86.385 C 225.328 84.484,227.738 83.700,229.753 84.473 C 234.256 86.201,239.335 79.664,236.316 76.026 C 233.691 72.863,228.571 72.668,228.571 75.731 " stroke="none" fill="#000000" fill-rule="evenodd"></path></g></svg>