<svg xmlns="http://www.w3.org/2000/svg" width="200" height="103" viewBox="0 0 200 103" version="1.1"><path d="M 78.445 56 C 78.445 73.325, 78.582 80.412, 78.748 71.750 C 78.915 63.087, 78.915 48.912, 78.748 40.250 C 78.582 31.587, 78.445 38.675, 78.445 56 M 147.921 31.595 C 146.817 32.925, 146.845 33.632, 148.087 35.845 C 149.251 37.920, 150.333 38.500, 153.038 38.500 C 155.843 38.500, 156.559 38.083, 156.813 36.302 C 157.575 30.944, 151.243 27.592, 147.921 31.595 M 17 47.870 L 17 64.741 28.063 67.974 C 34.148 69.752, 39.368 70.965, 39.663 70.670 C 40.944 69.389, 38.498 68.200, 29.057 65.516 L 19 62.657 19 49.951 C 19 39.926, 19.314 36.984, 20.487 36.011 C 22.047 34.716, 22.395 34.768, 33.316 37.926 C 37.382 39.101, 39.987 39.461, 39.772 38.817 C 39.515 38.046, 19.984 31.288, 17.250 31.024 C 17.113 31.011, 17 38.592, 17 47.870 M 53.549 34.427 C 47.526 36.231, 42.426 38.222, 42.216 38.853 C 41.734 40.298, 41.113 40.401, 50.500 37.485 C 59.835 34.585, 60.393 34.536, 62.294 36.437 C 63.402 37.545, 63.705 40.695, 63.616 50.182 L 63.500 62.490 53.039 65.627 C 47.286 67.352, 42.411 69.267, 42.206 69.882 C 41.671 71.488, 42.299 71.385, 54.750 67.820 L 66 64.599 66 47.799 C 66 38.560, 65.662 31.033, 65.250 31.074 C 64.838 31.115, 59.572 32.624, 53.549 34.427 M 151.543 33.931 C 151.226 34.443, 151.425 35.144, 151.984 35.490 C 152.543 35.835, 153 35.416, 153 34.559 C 153 32.802, 152.400 32.544, 151.543 33.931 M 23.217 48.192 L 23.500 59.385 29.123 61.052 C 32.216 61.969, 35.928 63.016, 37.373 63.379 L 40 64.038 40 52.719 L 40 41.401 32.521 39.200 C 28.408 37.990, 24.568 37, 23.988 37 C 23.296 37, 23.031 40.837, 23.217 48.192 M 49.500 39.369 L 42.500 41.563 42.217 52.781 C 42.062 58.952, 42.287 63.989, 42.717 63.976 C 43.148 63.963, 47.057 62.914, 51.405 61.645 L 59.310 59.338 59.226 49.919 C 59.107 36.735, 59.136 36.990, 57.750 37.087 C 57.063 37.135, 53.350 38.162, 49.500 39.369 M 20.374 48.500 C 20.376 54.550, 20.541 56.896, 20.740 53.713 C 20.939 50.531, 20.937 45.581, 20.736 42.713 C 20.535 39.846, 20.372 42.450, 20.374 48.500 M 61.374 48.500 C 61.376 54.550, 61.541 56.896, 61.740 53.713 C 61.939 50.531, 61.937 45.581, 61.736 42.713 C 61.535 39.846, 61.372 42.450, 61.374 48.500 M 25.550 41.909 C 26.299 42.626, 36.305 46, 37.682 46 C 37.857 46, 38 45.624, 38 45.164 C 38 44.704, 35.307 43.579, 32.015 42.664 C 25.149 40.755, 24.232 40.648, 25.550 41.909 M 50 42.738 C 43.974 44.466, 43.407 44.740, 44.206 45.540 C 44.982 46.315, 57 42.836, 57 41.836 C 57 40.782, 56.678 40.824, 50 42.738 M 127 43.835 C 127 45.872, 130.177 48.490, 131.293 47.374 C 132.598 46.068, 136.283 48.438, 137.471 51.346 C 140.739 59.340, 140.936 59, 133.036 59 C 127.703 59, 125.796 59.367, 125.371 60.474 C 124.208 63.505, 127.201 64.601, 136.500 64.550 L 145.500 64.500 145.195 61.640 C 144.727 57.256, 141.075 48.199, 138.627 45.352 C 137.048 43.517, 135.113 42.654, 131.717 42.272 C 127.426 41.788, 127 41.929, 127 43.835 M 105.655 44.829 C 104.631 45.960, 104 48.373, 104 51.154 C 104 56.710, 106.611 59.481, 112.801 60.491 L 117.102 61.193 116.801 65.846 L 116.500 70.500 105.674 70.785 L 94.847 71.069 95.491 65.785 C 95.979 61.784, 95.759 60.014, 94.587 58.500 C 92.210 55.431, 90.934 58.254, 91.242 65.897 C 91.569 73.997, 93.598 75.841, 102.500 76.127 C 120.347 76.702, 122.595 75.494, 121.715 65.799 C 121.107 59.089, 119.060 56.037, 115.095 55.930 C 110.270 55.799, 108.715 54.602, 108.604 50.936 L 108.500 47.500 114.750 47.835 C 120.995 48.170, 121.630 47.805, 120.393 44.582 C 119.464 42.160, 107.895 42.354, 105.655 44.829 M 152 55.186 C 152 66.360, 151.818 67.565, 149.802 69.710 L 147.605 72.049 149.653 74.097 L 151.700 76.145 154.240 73.127 C 156.623 70.295, 156.789 69.377, 156.933 58.249 C 157.102 45.133, 156.677 43, 153.893 43 C 152.139 43, 152 43.896, 152 55.186 M 165.655 44.829 C 164.446 46.165, 164 48.548, 164 53.674 C 164 61.864, 165.185 63.526, 171.776 64.580 C 174.099 64.952, 176 65.570, 176 65.953 C 176 66.337, 174.875 67.708, 173.500 69 C 170.525 71.794, 170.332 73.572, 172.854 74.922 C 174.325 75.709, 175.231 75.355, 177.240 73.207 C 181.657 68.484, 182.745 65.070, 182.926 55.370 C 183.140 43.917, 182.447 43, 173.584 43 C 168.776 43, 166.923 43.427, 165.655 44.829 M 25.226 46.559 C 26.340 47.673, 38 50.795, 38 49.979 C 38 49.519, 35.568 48.435, 32.596 47.571 C 27.047 45.958, 24.239 45.572, 25.226 46.559 M 48.750 47.771 C 46.138 48.640, 44 49.770, 44 50.283 C 44 50.795, 44.628 50.973, 45.396 50.678 C 46.164 50.384, 48.751 49.585, 51.146 48.903 C 53.541 48.221, 55.928 47.289, 56.450 46.831 C 57.927 45.539, 54.032 46.014, 48.750 47.771 M 168.905 48.250 C 168.853 48.388, 168.715 50.862, 168.598 53.750 L 168.387 59 173.194 59 L 178 59 178 53.500 L 178 48 173.500 48 C 171.025 48, 168.957 48.112, 168.905 48.250 M 25 50.761 C 25 51.577, 34.994 55, 37.375 55 C 39.583 55, 36.430 53.094, 32.646 52.141 C 30.232 51.533, 27.525 50.755, 26.629 50.411 C 25.733 50.067, 25 50.225, 25 50.761 M 50.302 51.884 C 44.999 53.596, 42.609 55, 44.995 55 C 47.395 55, 57 51.653, 57 50.817 C 57 49.784, 56.614 49.845, 50.302 51.884 M 25.550 55.909 C 26.299 56.626, 36.305 60, 37.682 60 C 37.857 60, 38 59.624, 38 59.164 C 38 58.704, 35.307 57.579, 32.015 56.664 C 25.149 54.755, 24.232 54.648, 25.550 55.909 M 49.250 56.761 C 46.362 57.602, 44 58.722, 44 59.252 C 44 59.781, 44.563 60.005, 45.250 59.749 C 45.938 59.494, 48.862 58.686, 51.750 57.953 C 54.638 57.221, 57 56.257, 57 55.811 C 57 54.746, 55.572 54.921, 49.250 56.761 M 22.171 61.504 C 23.056 62.390, 39.319 67.015, 39.812 66.521 C 40.349 65.985, 40.075 65.881, 30.645 63.055 C 23.848 61.017, 21.200 60.533, 22.171 61.504 M 49.500 63.749 C 45.100 65.149, 41.954 66.454, 42.508 66.650 C 43.063 66.846, 47.563 65.700, 52.508 64.104 C 57.454 62.509, 60.600 61.203, 59.500 61.203 C 58.400 61.204, 53.900 62.349, 49.500 63.749 M 129 68.180 C 124.573 69.445, 124.448 69.591, 126.255 71.398 C 128.457 73.600, 134.956 71.548, 134.256 68.871 C 133.710 66.782, 133.836 66.799, 129 68.180 M 164.750 68.294 C 162.543 68.826, 161 69.799, 161 70.658 C 161 71.461, 161.450 71.840, 162 71.500 C 162.550 71.160, 163 71.327, 163 71.871 C 163 72.504, 164.129 72.537, 166.136 71.961 C 169.920 70.876, 169.906 70.890, 169.124 68.944 C 168.619 67.685, 167.787 67.561, 164.750 68.294 M 24.690 74.717 C 24.365 77.861, 24.194 80.527, 24.309 80.642 C 24.423 80.757, 27.140 78.888, 30.346 76.490 L 36.175 72.130 30.906 70.565 C 28.008 69.704, 25.557 69, 25.458 69 C 25.360 69, 25.014 71.572, 24.690 74.717 M 51.265 70.326 C 49.486 70.972, 48.106 71.950, 48.198 72.500 C 48.291 73.050, 50.534 75.226, 53.183 77.335 L 58 81.170 57.986 77.335 C 57.968 72.268, 57.032 68.982, 55.633 69.076 C 55.010 69.118, 53.044 69.680, 51.265 70.326 M 101.461 79.063 C 101.100 79.648, 101.591 80.996, 102.554 82.059 C 104.838 84.583, 107.532 82.863, 105.944 79.895 C 104.833 77.820, 102.497 77.387, 101.461 79.063 M 109.461 79.063 C 109.100 79.648, 109.591 80.996, 110.554 82.059 C 112.838 84.583, 115.532 82.863, 113.944 79.895 C 112.833 77.820, 110.497 77.387, 109.461 79.063" stroke="none" fill="#335771" fill-rule="evenodd"/><path d="M -0 51.505 L -0 103.010 100.250 102.755 L 200.500 102.500 200.759 51.250 L 201.018 0 100.509 0 L 0 0 -0 51.505 M 0.465 52 C 0.465 80.325, 0.593 91.913, 0.749 77.750 C 0.906 63.588, 0.906 40.413, 0.749 26.250 C 0.593 12.088, 0.465 23.675, 0.465 52 M 78.445 56 C 78.445 73.325, 78.582 80.412, 78.748 71.750 C 78.915 63.087, 78.915 48.912, 78.748 40.250 C 78.582 31.587, 78.445 38.675, 78.445 56 M 147.921 31.595 C 146.817 32.925, 146.845 33.632, 148.087 35.845 C 149.251 37.920, 150.333 38.500, 153.038 38.500 C 155.843 38.500, 156.559 38.083, 156.813 36.302 C 157.575 30.944, 151.243 27.592, 147.921 31.595 M 17 47.870 L 17 64.741 28.063 67.974 C 34.148 69.752, 39.368 70.965, 39.663 70.670 C 40.944 69.389, 38.498 68.200, 29.057 65.516 L 19 62.657 19 49.951 C 19 39.926, 19.314 36.984, 20.487 36.011 C 22.047 34.716, 22.395 34.768, 33.316 37.926 C 37.382 39.101, 39.987 39.461, 39.772 38.817 C 39.515 38.046, 19.984 31.288, 17.250 31.024 C 17.113 31.011, 17 38.592, 17 47.870 M 53.549 34.427 C 47.526 36.231, 42.426 38.222, 42.216 38.853 C 41.734 40.298, 41.113 40.401, 50.500 37.485 C 59.835 34.585, 60.393 34.536, 62.294 36.437 C 63.402 37.545, 63.705 40.695, 63.616 50.182 L 63.500 62.490 53.039 65.627 C 47.286 67.352, 42.411 69.267, 42.206 69.882 C 41.671 71.488, 42.299 71.385, 54.750 67.820 L 66 64.599 66 47.799 C 66 38.560, 65.662 31.033, 65.250 31.074 C 64.838 31.115, 59.572 32.624, 53.549 34.427 M 151.543 33.931 C 151.226 34.443, 151.425 35.144, 151.984 35.490 C 152.543 35.835, 153 35.416, 153 34.559 C 153 32.802, 152.400 32.544, 151.543 33.931 M 23.217 48.192 L 23.500 59.385 29.123 61.052 C 32.216 61.969, 35.928 63.016, 37.373 63.379 L 40 64.038 40 52.719 L 40 41.401 32.521 39.200 C 28.408 37.990, 24.568 37, 23.988 37 C 23.296 37, 23.031 40.837, 23.217 48.192 M 49.500 39.369 L 42.500 41.563 42.217 52.781 C 42.062 58.952, 42.287 63.989, 42.717 63.976 C 43.148 63.963, 47.057 62.914, 51.405 61.645 L 59.310 59.338 59.226 49.919 C 59.107 36.735, 59.136 36.990, 57.750 37.087 C 57.063 37.135, 53.350 38.162, 49.500 39.369 M 20.374 48.500 C 20.376 54.550, 20.541 56.896, 20.740 53.713 C 20.939 50.531, 20.937 45.581, 20.736 42.713 C 20.535 39.846, 20.372 42.450, 20.374 48.500 M 61.374 48.500 C 61.376 54.550, 61.541 56.896, 61.740 53.713 C 61.939 50.531, 61.937 45.581, 61.736 42.713 C 61.535 39.846, 61.372 42.450, 61.374 48.500 M 25.550 41.909 C 26.299 42.626, 36.305 46, 37.682 46 C 37.857 46, 38 45.624, 38 45.164 C 38 44.704, 35.307 43.579, 32.015 42.664 C 25.149 40.755, 24.232 40.648, 25.550 41.909 M 50 42.738 C 43.974 44.466, 43.407 44.740, 44.206 45.540 C 44.982 46.315, 57 42.836, 57 41.836 C 57 40.782, 56.678 40.824, 50 42.738 M 127 43.835 C 127 45.872, 130.177 48.490, 131.293 47.374 C 132.598 46.068, 136.283 48.438, 137.471 51.346 C 140.739 59.340, 140.936 59, 133.036 59 C 127.703 59, 125.796 59.367, 125.371 60.474 C 124.208 63.505, 127.201 64.601, 136.500 64.550 L 145.500 64.500 145.195 61.640 C 144.727 57.256, 141.075 48.199, 138.627 45.352 C 137.048 43.517, 135.113 42.654, 131.717 42.272 C 127.426 41.788, 127 41.929, 127 43.835 M 105.655 44.829 C 104.631 45.960, 104 48.373, 104 51.154 C 104 56.710, 106.611 59.481, 112.801 60.491 L 117.102 61.193 116.801 65.846 L 116.500 70.500 105.674 70.785 L 94.847 71.069 95.491 65.785 C 95.979 61.784, 95.759 60.014, 94.587 58.500 C 92.210 55.431, 90.934 58.254, 91.242 65.897 C 91.569 73.997, 93.598 75.841, 102.500 76.127 C 120.347 76.702, 122.595 75.494, 121.715 65.799 C 121.107 59.089, 119.060 56.037, 115.095 55.930 C 110.270 55.799, 108.715 54.602, 108.604 50.936 L 108.500 47.500 114.750 47.835 C 120.995 48.170, 121.630 47.805, 120.393 44.582 C 119.464 42.160, 107.895 42.354, 105.655 44.829 M 152 55.186 C 152 66.360, 151.818 67.565, 149.802 69.710 L 147.605 72.049 149.653 74.097 L 151.700 76.145 154.240 73.127 C 156.623 70.295, 156.789 69.377, 156.933 58.249 C 157.102 45.133, 156.677 43, 153.893 43 C 152.139 43, 152 43.896, 152 55.186 M 165.655 44.829 C 164.446 46.165, 164 48.548, 164 53.674 C 164 61.864, 165.185 63.526, 171.776 64.580 C 174.099 64.952, 176 65.570, 176 65.953 C 176 66.337, 174.875 67.708, 173.500 69 C 170.525 71.794, 170.332 73.572, 172.854 74.922 C 174.325 75.709, 175.231 75.355, 177.240 73.207 C 181.657 68.484, 182.745 65.070, 182.926 55.370 C 183.140 43.917, 182.447 43, 173.584 43 C 168.776 43, 166.923 43.427, 165.655 44.829 M 25.226 46.559 C 26.340 47.673, 38 50.795, 38 49.979 C 38 49.519, 35.568 48.435, 32.596 47.571 C 27.047 45.958, 24.239 45.572, 25.226 46.559 M 48.750 47.771 C 46.138 48.640, 44 49.770, 44 50.283 C 44 50.795, 44.628 50.973, 45.396 50.678 C 46.164 50.384, 48.751 49.585, 51.146 48.903 C 53.541 48.221, 55.928 47.289, 56.450 46.831 C 57.927 45.539, 54.032 46.014, 48.750 47.771 M 168.905 48.250 C 168.853 48.388, 168.715 50.862, 168.598 53.750 L 168.387 59 173.194 59 L 178 59 178 53.500 L 178 48 173.500 48 C 171.025 48, 168.957 48.112, 168.905 48.250 M 25 50.761 C 25 51.577, 34.994 55, 37.375 55 C 39.583 55, 36.430 53.094, 32.646 52.141 C 30.232 51.533, 27.525 50.755, 26.629 50.411 C 25.733 50.067, 25 50.225, 25 50.761 M 50.302 51.884 C 44.999 53.596, 42.609 55, 44.995 55 C 47.395 55, 57 51.653, 57 50.817 C 57 49.784, 56.614 49.845, 50.302 51.884 M 25.550 55.909 C 26.299 56.626, 36.305 60, 37.682 60 C 37.857 60, 38 59.624, 38 59.164 C 38 58.704, 35.307 57.579, 32.015 56.664 C 25.149 54.755, 24.232 54.648, 25.550 55.909 M 49.250 56.761 C 46.362 57.602, 44 58.722, 44 59.252 C 44 59.781, 44.563 60.005, 45.250 59.749 C 45.938 59.494, 48.862 58.686, 51.750 57.953 C 54.638 57.221, 57 56.257, 57 55.811 C 57 54.746, 55.572 54.921, 49.250 56.761 M 22.171 61.504 C 23.056 62.390, 39.319 67.015, 39.812 66.521 C 40.349 65.985, 40.075 65.881, 30.645 63.055 C 23.848 61.017, 21.200 60.533, 22.171 61.504 M 49.500 63.749 C 45.100 65.149, 41.954 66.454, 42.508 66.650 C 43.063 66.846, 47.563 65.700, 52.508 64.104 C 57.454 62.509, 60.600 61.203, 59.500 61.203 C 58.400 61.204, 53.900 62.349, 49.500 63.749 M 129 68.180 C 124.573 69.445, 124.448 69.591, 126.255 71.398 C 128.457 73.600, 134.956 71.548, 134.256 68.871 C 133.710 66.782, 133.836 66.799, 129 68.180 M 164.750 68.294 C 162.543 68.826, 161 69.799, 161 70.658 C 161 71.461, 161.450 71.840, 162 71.500 C 162.550 71.160, 163 71.327, 163 71.871 C 163 72.504, 164.129 72.537, 166.136 71.961 C 169.920 70.876, 169.906 70.890, 169.124 68.944 C 168.619 67.685, 167.787 67.561, 164.750 68.294 M 24.690 74.717 C 24.365 77.861, 24.194 80.527, 24.309 80.642 C 24.423 80.757, 27.140 78.888, 30.346 76.490 L 36.175 72.130 30.906 70.565 C 28.008 69.704, 25.557 69, 25.458 69 C 25.360 69, 25.014 71.572, 24.690 74.717 M 51.265 70.326 C 49.486 70.972, 48.106 71.950, 48.198 72.500 C 48.291 73.050, 50.534 75.226, 53.183 77.335 L 58 81.170 57.986 77.335 C 57.968 72.268, 57.032 68.982, 55.633 69.076 C 55.010 69.118, 53.044 69.680, 51.265 70.326 M 101.461 79.063 C 101.100 79.648, 101.591 80.996, 102.554 82.059 C 104.838 84.583, 107.532 82.863, 105.944 79.895 C 104.833 77.820, 102.497 77.387, 101.461 79.063 M 109.461 79.063 C 109.100 79.648, 109.591 80.996, 110.554 82.059 C 112.838 84.583, 115.532 82.863, 113.944 79.895 C 112.833 77.820, 110.497 77.387, 109.461 79.063" stroke="none" fill="#eef1f2" fill-rule="evenodd"/></svg>